<?xml version="1.0" encoding="UTF-8"?>
<svg id="Layer_2" xmlns="http://www.w3.org/2000/svg" viewBox="0 0 908.3 160">
  <defs>
    <style>
      .cls-1 {
        font-family: AvenirNext-HeavyItalic, 'Avenir Next';
        font-size: 120px;
        font-style: italic;
        font-weight: 800;
      }

      .cls-1, .cls-2 {
        fill: #5a3ff2;
      }

      .cls-3 {
        fill: #fff;
      }

      .cls-4 {
        letter-spacing: -.02em;
      }

      .cls-5 {
        letter-spacing: -.02em;
      }

      .cls-6 {
        letter-spacing: -.02em;
      }

      .cls-7 {
        letter-spacing: -.05em;
      }

      .cls-8 {
        letter-spacing: -.01em;
      }
    </style>
  </defs>
  <g id="Layer_1-2" data-name="Layer_1">
    <g>
      <g id="Izs3SZ.tif">
        <g>
          <path class="cls-2" d="M43.78,137.56c-.59,1.07-1.17,2.15-1.78,3.22-2.7,4.77-5.68,9.33-9.85,12.98-2.1,1.83-4.44,3.27-7.09,4.16-2.76.93-5.63,1.16-8.47.67-4.2-.72-7.2-3.16-9.08-6.98-1.2-2.43-1.88-5.02-2.05-7.72-.05-.71-.27-1.15-.94-1.49-1.09-.56-1.67-1.59-2-2.72-.61-2.09-.51-4.2-.14-6.32.1-.55.22-1.1.26-1.66.01-.2-.14-.48-.31-.63-1.93-1.66-2.63-3.77-2.19-6.24.16-.86.54-1.68.84-2.52.51-1.41,1.04-2.82,1.57-4.23.12-.31.05-.53-.21-.76-1.39-1.21-1.47-2.75-1.06-4.41.26-1.05.53-2.1.74-3.16.04-.23-.15-.54-.3-.77-.84-1.25-1.3-2.61-1.27-4.13.04-2.34,1-4.22,2.86-5.62.6-.45.86-.94.9-1.68.07-1.33.31-2.65.38-3.98.16-3.18.28-6.37.37-9.56.01-.4-.2-.85-.43-1.19-.55-.82-.91-1.71-1-2.68-.22-2.37-.06-4.72.57-7.01.56-2,1.07-4.03,1.79-5.97,1.57-4.22,4.14-7.75,7.87-10.32,1.23-.85,2.6-1.49,3.96-2.13.53-.25.67-.52.61-1.05-.25-2.51.67-4.51,2.75-5.93.62-.42,1.38-.67,2.11-.9.71-.23.78-.32.4-.93-.88-1.42-1.43-2.98-1.86-4.59-1.03-3.96-.78-7.95-.26-11.92.42-3.18,1.33-6.23,3.3-8.85,1.61-2.15,3.73-3.54,6.37-4.1.55-.12,1.1-.23,1.65-.29.42-.05.43-.3.43-.61,0-1.04,0-2.09,0-3.13,0-2.96-.02-5.92.01-8.88.02-2,1.72-3.61,3.68-3.53.79.03,1.51.31,2.11.83.68.6,1.34,1.23,2.03,1.81.25.21.58.4.9.45,1.12.19,2.26.42,3.39.41.65,0,1.3-.41,1.95-.67,1.09-.43,2.16-.92,3.26-1.32,1.69-.61,3.68.47,4.31,2.15.51,1.36,0,2.49-.52,3.66-1.08,2.43-2.17,4.85-3.27,7.27-.96,2.12-1.92,4.25-2.88,6.37-.48,1.07-.94,2.15-1.46,3.21-.29.59-.1,1.13.03,1.68.29,1.32.73,2.62.84,3.95.21,2.5.36,5.02.29,7.52-.08,2.86-.83,5.6-2.21,8.14-.1.19-.22.36-.33.54-.32.52-.28.63.34.76,2.22.46,3.72,1.79,4.61,3.82.48,1.08.58,2.25.37,3.41-.08.47.09.72.45.94,2.88,1.8,5.49,3.93,7.79,6.44,2.77,3.02,5,6.4,6.75,10.11,1.19,2.52,2.12,5.13,2.89,7.8.43,1.48.74,3,1.05,4.51.24,1.19-.07,1.66-1.25,1.99-.82.23-1.64.43-2.47.61-.64.15-.75.27-.64.9.28,1.59.64,3.18.85,4.78.34,2.6.37,5.21-.03,7.8-.2,1.27-.48,2.54-.79,3.79-.21.84-.52,1.65-.86,2.45-.22.52-.27.93.09,1.44,1.43,2.05,1.98,4.36,1.98,6.84,0,10.79,0,21.58-.01,32.38,0,.73.2,1.27.7,1.81.89.96,1.75,1.95,2.21,3.22.92,2.56.17,5.19-1.89,6.82-1.11.88-2.41,1.31-3.81,1.32-5.66.02-11.33.03-16.99,0-3.59-.03-6.33-3.07-6-6.59.15-1.65.96-3.03,2.09-4.16.95-.95,1.29-1.96,1.24-3.3-.1-2.53-.03-5.07-.03-7.6,0-.25-.05-.51-.07-.76-.05,0-.09-.01-.14-.02ZM46.61,80.05c-.05.03-.11.06-.16.09.02.16.03.32.07.48.62,2.6,1.01,5.23,1.16,7.9.11,2.03-.05,4.05-.6,6.03-.42,1.52-1.07,2.89-2.19,4.01-1.79,1.79-4.06,2.56-6.46,2.98-3.83.66-7.63.24-11.41-.44-1.43-.26-2.5.46-2.63,1.9-.18,1.92-.37,3.85-.55,5.77-.13,1.37-.25,2.73-.35,4.1-.1,1.27.63,2.56,1.71,2.88,1.33.39,2.68.76,4.04.99,2.13.36,4.27.69,6.42.87,1.98.16,3.98.12,5.96.13.22,0,.55-.23.65-.44.38-.8.7-1.63,1.02-2.46.88-2.28,1.79-4.55,3.08-6.65,1.7-2.76,3.9-4.85,7.27-5.4,1.97-.32,3.86-.06,5.68.66.96.38,1.84.93,2.8,1.42.04-.07.13-.16.15-.26.43-1.58.98-3.14,1.24-4.75.54-3.37.26-6.75-.33-10.1-.11-.64-.3-1.28-.45-1.91-.1-.42-.35-.56-.77-.45-1.08.27-2.17.52-3.26.79-1.76.43-3.52.88-5.28,1.29-1.06.25-1.62-.08-1.92-1.13-.73-2.49-1.94-4.74-3.53-6.78-.42-.54-.9-1.02-1.35-1.53ZM45.26,89.32c-.06,0-.12-.01-.18-.02,0-.29.03-.58,0-.87-.24-1.93-.42-3.88-.76-5.79-.29-1.61-.78-3.18-1.16-4.77-.13-.51-.5-.73-.94-.92-1.33-.58-2.75-.8-4.17-.91-4.98-.4-9.96-.33-14.92.32-.84.11-1.66.35-2.5.49-.52.08-.62.37-.63.84-.04,2.38-.12,4.75-.18,7.13-.14,4.95-.44,9.88-1.05,14.8-.07.59.19.81.69.92.73.16,1.47.32,2.2.5.37.1.59.01.81-.33,1-1.56,2.43-2.35,4.3-2.17,1.29.12,2.56.37,3.84.5,3.48.36,6.94.5,10.28-.84,1.98-.8,3.31-2.22,3.76-4.31.32-1.5.43-3.05.63-4.57ZM63.87,145.31c.02-.29.05-.59.05-.89,0-8.06,0-16.12,0-24.18,0-.19.03-.39-.02-.58-.04-.17-.13-.38-.26-.48-1.56-1.19-3.33-1.94-5.23-2.34-1.96-.42-3.93-.49-5.92-.1-1.92.37-3.7,1.03-5.33,2.11-.42.28-.62.63-.62,1.15.01,8.2,0,16.39.01,24.59,0,.2.1.39.15.59.21-.07.44-.1.61-.21,2-1.34,4.13-2.32,6.56-2.53,2.22-.2,4.4,0,6.44,1,1.17.57,2.31,1.22,3.56,1.88ZM23.64,34.45c-.07,2.02-.1,4.04.48,5.99.4,1.36.89,2.72,1.55,3.97.95,1.8,2.52,3.06,4.25,4.08,2.11,1.24,4.38,1.77,6.78,1.04,2.59-.79,4.69-2.34,6.27-4.53,1.21-1.67,1.77-3.62,2.13-5.63.48-2.77.31-5.55.04-8.32-.02-.24-.23-.55-.44-.68-2.85-1.69-5.97-2.45-9.25-2.65-1.94-.11-3.85.12-5.74.55-1.88.42-3.65,1.1-5.33,2.02-.41.23-.58.53-.59.98-.04,1.06-.09,2.12-.14,3.19ZM34.18,59.86c1.06,0,2.76-.07,4.46-.42,2.93-.61,5.61-1.79,8.07-3.47,1.12-.77,1.56-1.94,1.46-3.28-.11-1.45-.84-2.49-2.16-3.12-1.68-.79-3.25-.15-4.7.58-1.43.72-2.78,1.56-4.36,1.93-2.34.55-4.59.3-6.79-.62-1.47-.61-2.74-1.59-4.32-2.04-1.82-.51-3.78.13-4.67,1.89-.88,1.75-.24,3.76,1.22,4.72,3.38,2.24,7.05,3.62,11.8,3.82ZM17.3,78.48c-.3.19-.49.28-.65.4-1.64,1.21-3.27,2.45-4.93,3.64-1.01.72-2.12,1.28-3.35,1.5-.82.15-.81.11-.84.95-.06,2.14-.11,4.29-.23,6.43-.11,1.91-.31,3.81-.48,5.71-.05.5.05.75.64.74.59-.02,1.2.03,1.78.16,1.58.36,3.14.79,4.71,1.18.58.14,1.16.27,1.75.39.37.08.57-.07.6-.48.07-.96.21-1.92.28-2.88.44-5.63.8-11.26.78-16.91,0-.22-.04-.45-.07-.83ZM21.69,104.47c.14-.51,0-.87-.7-.94-.51-.06-1.01-.24-1.51-.37-1.65-.41-3.29-.81-4.94-1.22-1.63-.4-3.26-.8-4.88-1.21-1.4-.35-2.78-.59-4.16.14-1.72.91-2.67,2.74-2.46,4.59.23,2.07,2.04,3.74,3.76,3.94.92.11,1.83.26,2.75.39,2.81.4,5.61.81,8.42,1.21.86.12,1.72.23,2.58.35.36.05.52-.07.55-.46.18-2.12.39-4.23.6-6.43ZM43.89,120.21c-.44.84-.81,1.53-1.17,2.23-1.8,3.61-4.73,6.03-8.25,7.83-.99.51-1,.47-.84,1.56.52,3.65.74,7.29.31,10.98-.31,2.63-1.04,5.09-2.28,7.41-.05.09-.05.21-.07.32.3-.1.48-.26.65-.44,2.51-2.57,4.56-5.49,6.34-8.59,1.8-3.14,3.47-6.36,5.19-9.55.13-.24.21-.55.21-.82.01-3.38.01-6.77,0-10.15,0-.21-.05-.43-.1-.78ZM14.18,138.12c.05.08.11.16.16.24.22.03.44.06.66.07.96.06,1.94.05,2.89.18,1.66.23,3.32.48,4.95.86,1.12.26,2.23.65,3.26,1.15,1.6.79,3.14,1.71,4.69,2.6.33.19.48.11.54-.2.09-.45.15-.92.17-1.38.16-3.15.06-6.3-.34-9.43-.06-.5-.28-.56-.7-.43-.57.18-1.14.37-1.73.48-2.12.39-4.26.72-6.38,1.13-1.03.2-2.08.43-3.06.82-1.58.64-2.77,1.87-4,3-.35.32-.74.6-1.11.89ZM10.53,121.74s.04,0,.05,0c0-.68.03-1.35-.02-2.03-.01-.19-.21-.49-.37-.51-1.44-.26-2.89-.47-4.34-.72-.56-.1-.8.17-.98.64-.64,1.73-1.32,3.45-1.95,5.19-.36.99-.56,1.97-.18,3.04.62,1.75,2.3,2.86,4.28,2.58,1.64-.23,3.08-1.61,3.21-3.45.11-1.58.19-3.16.28-4.74ZM35.81,13.77c0,.52.03,1.04,0,1.56-.04.57.14.83.76.87.69.05,1.38.21,2.04.41,2.56.78,4.59,2.3,6.08,4.53.08.13.25.24.39.27.07.01.21-.19.27-.31.3-.63.58-1.26.86-1.89.49-1.09.97-2.18,1.48-3.26.22-.47.13-.8-.33-1.04-.7-.37-1.38-.77-2.08-1.12-1.68-.83-3.43-1.48-5.27-1.83-1.21-.23-2.44-.37-3.65-.55-.37-.05-.53.13-.53.5,0,.62,0,1.24,0,1.85ZM11.94,116.85c.97.02,1.43-.31,1.6-1.02.17-.71.28-1.44.44-2.15.1-.44-.05-.65-.49-.71-1.22-.17-2.45-.34-3.66-.55-1.69-.28-3.43-.24-5.04-.96-.36-.16-.56-.02-.63.4-.11.64-.27,1.28-.44,1.92-.34,1.21.09,1.82,1.34,1.99,1.17.16,2.32.38,3.49.56,1.22.19,2.44.37,3.41.52Z"/>
          <path class="cls-3" d="M46.61,80.05c.45.51.94.99,1.35,1.53,1.58,2.05,2.8,4.29,3.53,6.78.31,1.05.86,1.37,1.92,1.13,1.77-.41,3.52-.86,5.28-1.29,1.09-.27,2.18-.52,3.26-.79.42-.11.67.03.77.45.15.64.34,1.27.45,1.91.59,3.35.87,6.72.33,10.1-.26,1.61-.81,3.17-1.24,4.75-.03.1-.11.19-.15.26-.95-.49-1.84-1.05-2.8-1.42-1.82-.72-3.71-.98-5.68-.66-3.37.55-5.57,2.64-7.27,5.4-1.29,2.09-2.2,4.36-3.08,6.65-.32.83-.64,1.66-1.02,2.46-.1.21-.43.44-.65.44-1.99,0-3.99.04-5.96-.13-2.15-.18-4.3-.51-6.42-.87-1.36-.23-2.71-.6-4.04-.99-1.08-.32-1.8-1.61-1.71-2.88.1-1.37.23-2.74.35-4.1.18-1.92.37-3.85.55-5.77.13-1.44,1.2-2.16,2.63-1.9,3.78.68,7.59,1.11,11.41.44,2.4-.42,4.68-1.19,6.46-2.98,1.12-1.12,1.77-2.5,2.19-4.01.54-1.98.71-4,.6-6.03-.14-2.67-.54-5.3-1.16-7.9-.04-.16-.05-.32-.07-.48.05-.03.11-.06.16-.09Z"/>
          <path class="cls-3" d="M45.26,89.32c-.2,1.53-.31,3.07-.63,4.57-.45,2.09-1.78,3.51-3.76,4.31-3.34,1.34-6.8,1.2-10.28.84-1.28-.13-2.56-.38-3.84-.5-1.87-.18-3.3.61-4.3,2.17-.22.34-.43.43-.81.33-.73-.19-1.46-.34-2.2-.5-.5-.11-.76-.33-.69-.92.6-4.91.91-9.85,1.05-14.8.07-2.38.14-4.75.18-7.13,0-.47.11-.76.63-.84.84-.13,1.66-.38,2.5-.49,4.96-.65,9.94-.72,14.92-.32,1.42.11,2.84.34,4.17.91.44.19.82.4.94.92.39,1.59.88,3.16,1.16,4.77.34,1.92.52,3.86.76,5.79.04.29,0,.58,0,.87.06,0,.12.01.18.02Z"/>
          <path class="cls-3" d="M63.87,145.31c-1.25-.66-2.38-1.31-3.56-1.88-2.04-.99-4.21-1.19-6.44-1-2.43.21-4.56,1.2-6.56,2.53-.17.12-.41.14-.61.21-.05-.2-.15-.39-.15-.59,0-8.2,0-16.39-.01-24.59,0-.52.19-.87.62-1.15,1.63-1.08,3.41-1.74,5.33-2.11,1.99-.39,3.96-.32,5.92.1,1.9.4,3.67,1.15,5.23,2.34.13.1.22.31.26.48.05.18.02.38.02.58,0,8.06,0,16.12,0,24.18,0,.3-.03.6-.05.89Z"/>
          <path class="cls-3" d="M23.64,34.45c.05-1.06.1-2.12.14-3.19.02-.44.18-.75.59-.98,1.68-.93,3.45-1.6,5.33-2.02,1.9-.43,3.8-.67,5.74-.55,3.28.19,6.4.96,9.25,2.65.21.13.42.43.44.68.27,2.77.45,5.55-.04,8.32-.35,2.02-.92,3.96-2.13,5.63-1.58,2.19-3.68,3.74-6.27,4.53-2.4.74-4.66.2-6.78-1.04-1.74-1.02-3.3-2.28-4.25-4.08-.66-1.25-1.14-2.61-1.55-3.97-.58-1.95-.55-3.97-.48-5.99Z"/>
          <path class="cls-3" d="M34.18,59.86c-4.75-.2-8.42-1.58-11.8-3.82-1.46-.97-2.1-2.98-1.22-4.72.89-1.76,2.84-2.41,4.67-1.89,1.58.44,2.85,1.43,4.32,2.04,2.2.92,4.45,1.17,6.79.62,1.58-.37,2.94-1.21,4.36-1.93,1.45-.73,3.02-1.37,4.7-.58,1.32.62,2.05,1.67,2.16,3.12.1,1.34-.34,2.51-1.46,3.28-2.45,1.68-5.13,2.86-8.07,3.47-1.7.35-3.4.43-4.46.42Z"/>
          <path class="cls-3" d="M17.3,78.48c.03.38.07.6.07.83.02,5.65-.34,11.28-.78,16.91-.08.96-.21,1.92-.28,2.88-.03.41-.22.56-.6.48-.59-.12-1.17-.25-1.75-.39-1.57-.39-3.13-.82-4.71-1.18-.58-.13-1.19-.17-1.78-.16-.59.02-.68-.24-.64-.74.18-1.9.37-3.81.48-5.71.12-2.14.16-4.28.23-6.43.02-.83.01-.79.84-.95,1.23-.23,2.34-.79,3.35-1.5,1.66-1.19,3.29-2.43,4.93-3.64.16-.12.35-.22.65-.4Z"/>
          <path class="cls-3" d="M21.69,104.47c-.21,2.2-.41,4.31-.6,6.43-.03.38-.19.51-.55.46-.86-.12-1.72-.23-2.58-.35-2.81-.4-5.61-.81-8.42-1.21-.92-.13-1.83-.28-2.75-.39-1.71-.2-3.52-1.87-3.76-3.94-.21-1.85.74-3.68,2.46-4.59,1.38-.73,2.76-.5,4.16-.14,1.63.41,3.25.81,4.88,1.21,1.65.41,3.29.81,4.94,1.22.5.13,1,.31,1.51.37.69.07.83.43.7.94Z"/>
          <path class="cls-3" d="M43.89,120.21c.05.35.1.57.1.78,0,3.38,0,6.77,0,10.15,0,.28-.08.58-.21.82-1.71,3.19-3.38,6.41-5.19,9.55-1.78,3.1-3.84,6.02-6.34,8.59-.17.17-.36.33-.65.44.02-.11.02-.23.07-.32,1.24-2.32,1.97-4.78,2.28-7.41.43-3.69.21-7.33-.31-10.98-.16-1.09-.15-1.05.84-1.56,3.52-1.8,6.44-4.22,8.25-7.83.35-.7.73-1.39,1.17-2.23Z"/>
          <path class="cls-3" d="M14.18,138.12c.37-.3.76-.57,1.11-.89,1.24-1.14,2.42-2.36,4-3,.97-.39,2.02-.62,3.06-.82,2.12-.41,4.26-.74,6.38-1.13.59-.11,1.16-.3,1.73-.48.42-.13.64-.07.7.43.4,3.13.5,6.28.34,9.43-.02.46-.08.92-.17,1.38-.06.31-.21.39-.54.2-1.55-.89-3.08-1.82-4.69-2.6-1.03-.51-2.14-.89-3.26-1.15-1.63-.38-3.29-.63-4.95-.86-.95-.13-1.92-.12-2.89-.18-.22-.01-.44-.05-.66-.07-.05-.08-.11-.16-.16-.24Z"/>
          <path class="cls-3" d="M10.53,121.74c-.09,1.58-.17,3.16-.28,4.74-.13,1.84-1.57,3.22-3.21,3.45-1.98.28-3.66-.83-4.28-2.58-.38-1.07-.18-2.06.18-3.04.63-1.74,1.31-3.45,1.95-5.19.18-.48.42-.74.98-.64,1.44.25,2.9.45,4.34.72.15.03.36.33.37.51.04.67.02,1.35.02,2.03-.02,0-.04,0-.05,0Z"/>
          <path class="cls-3" d="M35.81,13.77c0-.62,0-1.24,0-1.85,0-.37.16-.55.53-.5,1.22.17,2.45.32,3.65.55,1.84.35,3.59,1,5.27,1.83.71.35,1.39.75,2.08,1.12.46.24.55.58.33,1.04-.5,1.08-.99,2.17-1.48,3.26-.29.63-.57,1.26-.86,1.89-.06.13-.2.32-.27.31-.14-.02-.31-.14-.39-.27-1.5-2.23-3.52-3.75-6.08-4.53-.66-.2-1.35-.36-2.04-.41-.62-.04-.8-.3-.76-.87.03-.52,0-1.04,0-1.56Z"/>
          <path class="cls-3" d="M11.94,116.85c-.97-.15-2.19-.33-3.41-.52-1.16-.18-2.32-.4-3.49-.56-1.25-.17-1.67-.79-1.34-1.99.18-.63.33-1.27.44-1.92.07-.41.27-.56.63-.4,1.61.71,3.35.68,5.04.96,1.22.2,2.44.37,3.66.55.44.06.59.27.49.71-.16.71-.27,1.44-.44,2.15-.17.71-.63,1.04-1.6,1.02Z"/>
        </g>
      </g>
      <text class="cls-1" transform="translate(104.54 128.9)"><tspan x="0" y="0">TERR</tspan><tspan class="cls-5" x="309.96" y="0">A</tspan><tspan class="cls-8" x="400.8" y="0">C</tspan><tspan class="cls-4" x="481.68" y="0">O</tspan><tspan x="578.76" y="0">T</tspan><tspan class="cls-7" x="648.72" y="0">T</tspan><tspan class="cls-6" x="712.92" y="0">A</tspan></text>
    </g>
  </g>
</svg>